<mxfile host="app.diagrams.net" modified="2024-04-29T12:40:25.434Z" agent="Mozilla/5.0 (X11; Linux x86_64) AppleWebKit/537.36 (KHTML, like Gecko) Chrome/124.0.0.0 Safari/537.36" etag="RzomMw49JrtB9vKG9hAU" version="24.3.0" type="device">
  <diagram id="prtHgNgQTEPvFCAcTncT" name="Page-1">
    <mxGraphModel dx="683" dy="374" grid="1" gridSize="10" guides="1" tooltips="1" connect="1" arrows="1" fold="1" page="1" pageScale="1" pageWidth="827" pageHeight="1169" math="0" shadow="0">
      <root>
        <mxCell id="0" />
        <mxCell id="1" parent="0" />
        <mxCell id="Zw5XkZXY3L7ShY0lB7oh-10" value="" style="whiteSpace=wrap;html=1;aspect=fixed;" vertex="1" parent="1">
          <mxGeometry y="50" width="810" height="810" as="geometry" />
        </mxCell>
        <mxCell id="Zw5XkZXY3L7ShY0lB7oh-11" value="" style="rounded=1;whiteSpace=wrap;html=1;" vertex="1" parent="1">
          <mxGeometry x="370" y="100" width="120" height="170" as="geometry" />
        </mxCell>
        <mxCell id="Zw5XkZXY3L7ShY0lB7oh-13" value="squad PO" style="rounded=1;whiteSpace=wrap;html=1;" vertex="1" parent="1">
          <mxGeometry x="10" y="370" width="120" height="230" as="geometry" />
        </mxCell>
        <mxCell id="Zw5XkZXY3L7ShY0lB7oh-14" value="squad DevOps" style="rounded=1;whiteSpace=wrap;html=1;" vertex="1" parent="1">
          <mxGeometry x="140" y="370" width="120" height="230" as="geometry" />
        </mxCell>
        <mxCell id="Zw5XkZXY3L7ShY0lB7oh-15" value="" style="rounded=1;whiteSpace=wrap;html=1;" vertex="1" parent="1">
          <mxGeometry x="405" y="370" width="120" height="230" as="geometry" />
        </mxCell>
        <mxCell id="Zw5XkZXY3L7ShY0lB7oh-16" value="squad front" style="rounded=1;whiteSpace=wrap;html=1;" vertex="1" parent="1">
          <mxGeometry x="680" y="370" width="120" height="230" as="geometry" />
        </mxCell>
        <mxCell id="Zw5XkZXY3L7ShY0lB7oh-18" value="" style="endArrow=none;html=1;rounded=0;entryX=0;entryY=0.25;entryDx=0;entryDy=0;exitX=0.25;exitY=0.116;exitDx=0;exitDy=0;exitPerimeter=0;" edge="1" parent="1">
          <mxGeometry width="50" height="50" relative="1" as="geometry">
            <mxPoint x="200" y="140.79999999999995" as="sourcePoint" />
            <mxPoint x="370" y="140.5" as="targetPoint" />
          </mxGeometry>
        </mxCell>
        <mxCell id="Zw5XkZXY3L7ShY0lB7oh-19" value="" style="endArrow=none;html=1;rounded=0;exitX=0.5;exitY=0;exitDx=0;exitDy=0;" edge="1" parent="1">
          <mxGeometry width="50" height="50" relative="1" as="geometry">
            <mxPoint x="460" y="370" as="sourcePoint" />
            <mxPoint x="460" y="310" as="targetPoint" />
          </mxGeometry>
        </mxCell>
        <mxCell id="Zw5XkZXY3L7ShY0lB7oh-20" value="" style="endArrow=none;html=1;rounded=0;entryX=0.5;entryY=0;entryDx=0;entryDy=0;edgeStyle=orthogonalEdgeStyle;" edge="1" parent="1" target="Zw5XkZXY3L7ShY0lB7oh-16">
          <mxGeometry width="50" height="50" relative="1" as="geometry">
            <mxPoint x="670" y="310" as="sourcePoint" />
            <mxPoint x="484" y="260" as="targetPoint" />
          </mxGeometry>
        </mxCell>
        <mxCell id="Zw5XkZXY3L7ShY0lB7oh-21" value="" style="endArrow=none;html=1;rounded=0;" edge="1" parent="1">
          <mxGeometry width="50" height="50" relative="1" as="geometry">
            <mxPoint x="460" y="310" as="sourcePoint" />
            <mxPoint x="670" y="310" as="targetPoint" />
          </mxGeometry>
        </mxCell>
        <mxCell id="Zw5XkZXY3L7ShY0lB7oh-22" value="" style="endArrow=none;html=1;rounded=0;exitX=1;exitY=0.75;exitDx=0;exitDy=0;edgeStyle=orthogonalEdgeStyle;" edge="1" parent="1" source="Zw5XkZXY3L7ShY0lB7oh-11">
          <mxGeometry width="50" height="50" relative="1" as="geometry">
            <mxPoint x="430" y="270" as="sourcePoint" />
            <mxPoint x="550" y="310" as="targetPoint" />
          </mxGeometry>
        </mxCell>
        <mxCell id="Zw5XkZXY3L7ShY0lB7oh-26" value="" style="endArrow=none;html=1;rounded=0;exitX=0;exitY=0.25;exitDx=0;exitDy=0;" edge="1" parent="1">
          <mxGeometry width="50" height="50" relative="1" as="geometry">
            <mxPoint x="525" y="430" as="sourcePoint" />
            <mxPoint x="525" y="430" as="targetPoint" />
            <Array as="points">
              <mxPoint x="405" y="430" />
              <mxPoint x="515" y="430" />
            </Array>
          </mxGeometry>
        </mxCell>
        <mxCell id="Zw5XkZXY3L7ShY0lB7oh-27" value="" style="endArrow=none;dashed=1;html=1;dashPattern=1 3;strokeWidth=2;rounded=0;endFill=0;startArrow=classic;startFill=1;" edge="1" parent="1">
          <mxGeometry width="50" height="50" relative="1" as="geometry">
            <mxPoint x="200" y="230" as="sourcePoint" />
            <mxPoint x="370" y="230" as="targetPoint" />
          </mxGeometry>
        </mxCell>
        <mxCell id="Zw5XkZXY3L7ShY0lB7oh-28" value="CTO" style="text;html=1;align=center;verticalAlign=middle;whiteSpace=wrap;rounded=0;" vertex="1" parent="1">
          <mxGeometry x="390" y="120" width="60" height="30" as="geometry" />
        </mxCell>
        <mxCell id="Zw5XkZXY3L7ShY0lB7oh-29" value="VP Engineering" style="text;html=1;align=center;verticalAlign=middle;whiteSpace=wrap;rounded=0;" vertex="1" parent="1">
          <mxGeometry x="385" y="210" width="90" height="30" as="geometry" />
        </mxCell>
        <mxCell id="Zw5XkZXY3L7ShY0lB7oh-30" value="Lead" style="text;html=1;align=center;verticalAlign=middle;whiteSpace=wrap;rounded=0;" vertex="1" parent="1">
          <mxGeometry x="385" y="380" width="90" height="30" as="geometry" />
        </mxCell>
        <mxCell id="Zw5XkZXY3L7ShY0lB7oh-31" value="2 teams backend developper" style="text;html=1;align=center;verticalAlign=middle;whiteSpace=wrap;rounded=0;" vertex="1" parent="1">
          <mxGeometry x="420" y="480" width="90" height="30" as="geometry" />
        </mxCell>
        <mxCell id="Zw5XkZXY3L7ShY0lB7oh-32" value="squad appli-mobile" style="rounded=1;whiteSpace=wrap;html=1;" vertex="1" parent="1">
          <mxGeometry x="540" y="365" width="120" height="235" as="geometry" />
        </mxCell>
        <mxCell id="Zw5XkZXY3L7ShY0lB7oh-34" value="" style="endArrow=none;html=1;rounded=0;exitX=0.5;exitY=0;exitDx=0;exitDy=0;" edge="1" parent="1" source="Zw5XkZXY3L7ShY0lB7oh-32">
          <mxGeometry width="50" height="50" relative="1" as="geometry">
            <mxPoint x="460" y="380" as="sourcePoint" />
            <mxPoint x="600" y="310" as="targetPoint" />
          </mxGeometry>
        </mxCell>
        <mxCell id="Zw5XkZXY3L7ShY0lB7oh-35" value="" style="endArrow=none;html=1;rounded=0;" edge="1" parent="1">
          <mxGeometry width="50" height="50" relative="1" as="geometry">
            <mxPoint x="200" y="140" as="sourcePoint" />
            <mxPoint x="200" y="310" as="targetPoint" />
          </mxGeometry>
        </mxCell>
        <mxCell id="Zw5XkZXY3L7ShY0lB7oh-36" value="" style="endArrow=none;html=1;rounded=0;" edge="1" parent="1">
          <mxGeometry width="50" height="50" relative="1" as="geometry">
            <mxPoint x="60" y="310" as="sourcePoint" />
            <mxPoint x="330" y="310" as="targetPoint" />
          </mxGeometry>
        </mxCell>
        <mxCell id="Zw5XkZXY3L7ShY0lB7oh-37" value="" style="endArrow=none;html=1;rounded=0;exitX=0.5;exitY=0;exitDx=0;exitDy=0;" edge="1" parent="1">
          <mxGeometry width="50" height="50" relative="1" as="geometry">
            <mxPoint x="60" y="370" as="sourcePoint" />
            <mxPoint x="60" y="310" as="targetPoint" />
          </mxGeometry>
        </mxCell>
        <mxCell id="Zw5XkZXY3L7ShY0lB7oh-38" value="" style="endArrow=none;html=1;rounded=0;exitX=0.5;exitY=0;exitDx=0;exitDy=0;" edge="1" parent="1">
          <mxGeometry width="50" height="50" relative="1" as="geometry">
            <mxPoint x="200.5" y="370" as="sourcePoint" />
            <mxPoint x="200.5" y="310" as="targetPoint" />
          </mxGeometry>
        </mxCell>
        <mxCell id="Zw5XkZXY3L7ShY0lB7oh-39" value="squad QA" style="rounded=1;whiteSpace=wrap;html=1;" vertex="1" parent="1">
          <mxGeometry x="265" y="370" width="120" height="230" as="geometry" />
        </mxCell>
        <mxCell id="Zw5XkZXY3L7ShY0lB7oh-40" value="" style="endArrow=none;html=1;rounded=0;exitX=0.5;exitY=0;exitDx=0;exitDy=0;" edge="1" parent="1">
          <mxGeometry width="50" height="50" relative="1" as="geometry">
            <mxPoint x="330" y="370" as="sourcePoint" />
            <mxPoint x="330" y="310" as="targetPoint" />
          </mxGeometry>
        </mxCell>
        <mxCell id="Zw5XkZXY3L7ShY0lB7oh-41" value="" style="endArrow=none;html=1;rounded=0;exitX=0.5;exitY=0;exitDx=0;exitDy=0;entryX=0.5;entryY=0;entryDx=0;entryDy=0;" edge="1" parent="1">
          <mxGeometry width="50" height="50" relative="1" as="geometry">
            <mxPoint x="459.5" y="430" as="sourcePoint" />
            <mxPoint x="460" y="370" as="targetPoint" />
          </mxGeometry>
        </mxCell>
        <mxCell id="Zw5XkZXY3L7ShY0lB7oh-42" value="Lead" style="text;html=1;align=center;verticalAlign=middle;whiteSpace=wrap;rounded=0;" vertex="1" parent="1">
          <mxGeometry x="450" y="380" width="90" height="30" as="geometry" />
        </mxCell>
      </root>
    </mxGraphModel>
  </diagram>
</mxfile>
